<?xml version="1.0" encoding="UTF-8"?><svg id="Layer_1" xmlns="http://www.w3.org/2000/svg" viewBox="0 0 360 216"><defs><style>.cls-1{fill:#597073;stroke-width:0px;}</style></defs><path class="cls-1" d="m183.91,56.6c-.21.34-.48.68-.81,1-.34.34-.71.59-1.1.76-.39.17-.79.26-1.19.27-.4,0-.8-.07-1.18-.23-.39-.16-.75-.41-1.08-.75-.34-.34-.58-.71-.74-1.1-.15-.39-.22-.79-.2-1.19s.12-.79.29-1.17c.18-.38.43-.73.76-1.05.34-.33.7-.59,1.09-.77.39-.18.76-.28,1.11-.28l.08,1.38c-.21-.02-.44.02-.68.11-.24.09-.46.23-.67.44-.18.18-.31.38-.4.59-.09.22-.13.44-.12.67s.06.46.15.68c.1.22.24.43.43.62.19.2.4.35.62.46.22.11.44.17.67.18s.45-.03.68-.12c.23-.09.45-.24.65-.45.12-.12.23-.24.32-.36s.16-.25.22-.38l-.77-.78-.81.8-.82-.83,1.76-1.73,2.22,2.26c-.1.31-.26.64-.47.99Z"/><path class="cls-1" d="m189.06,53.24l-2.27-1.47-.43.24,1.13,2.09-1.24.67-2.86-5.26,2.01-1.09c.25-.14.51-.24.78-.32.27-.08.53-.11.79-.09.26.02.5.1.72.24.22.14.42.36.58.67.2.36.26.71.2,1.06-.06.35-.24.66-.52.95l2.6,1.5-1.49.81Zm-2.03-3.62c-.07-.12-.15-.21-.24-.26-.1-.05-.19-.07-.3-.07-.11,0-.21.02-.32.07-.11.04-.21.09-.3.14l-.68.37.67,1.22.61-.33c.1-.06.21-.12.31-.2.1-.08.18-.16.25-.26.07-.09.1-.2.12-.31.01-.11-.02-.24-.09-.37Z"/><path class="cls-1" d="m195.9,51.04l-.71-1.04-2.26.51-.17,1.24-1.53.35,1.12-6.39,1.37-.31,3.75,5.28-1.57.36Zm-2.54-3.92l-.29,2.17,1.47-.33-1.18-1.84Z"/><path class="cls-1" d="m203.5,46.8c-.02.35-.1.64-.24.87-.14.23-.32.42-.55.55-.23.14-.48.23-.77.29-.29.05-.59.07-.9.06l-.72-.04-.11,2.25-1.44-.07.29-5.98,2.19.11c.33.02.63.06.91.14.28.08.52.19.73.35.2.15.36.35.47.59.11.24.16.53.14.87Zm-1.44-.06c0-.14-.02-.26-.07-.35-.05-.09-.12-.17-.22-.22-.09-.05-.2-.09-.32-.12-.12-.02-.24-.04-.37-.04l-.63-.03-.07,1.41.61.03c.13,0,.26,0,.39-.01s.24-.05.34-.1c.1-.05.18-.12.24-.21.06-.09.09-.21.1-.35Z"/><path class="cls-1" d="m208.52,52.43l.8-2.37-2.21-.74-.79,2.37-1.37-.46,1.9-5.67,1.37.46-.72,2.15,2.21.74.72-2.15,1.37.46-1.9,5.67-1.37-.46Z"/><path class="cls-1" d="m211.67,53.94l3.11-5.11,1.24.75-3.11,5.11-1.24-.76Z"/><path class="cls-1" d="m217.85,58.72c-.4-.14-.79-.38-1.16-.73-.33-.32-.59-.67-.77-1.05-.18-.38-.28-.77-.29-1.17-.01-.4.05-.8.2-1.19.15-.4.38-.76.71-1.1.33-.35.69-.6,1.08-.77.39-.17.78-.25,1.18-.25.4,0,.79.09,1.18.25.39.17.75.41,1.08.72.3.29.55.63.75,1.02.19.39.28.78.27,1.16l-1.38.03c.03-.23,0-.45-.1-.67-.1-.22-.23-.41-.4-.57-.18-.17-.38-.3-.6-.38-.22-.08-.44-.11-.66-.1-.22.01-.44.07-.65.17-.22.1-.42.25-.6.44-.18.2-.32.4-.42.63-.1.22-.14.44-.14.66,0,.22.04.43.13.64.09.21.22.4.4.57.21.2.43.33.66.4.23.06.46.08.68.04l.08,1.38c-.4.04-.8-.01-1.21-.15Z"/><path class="cls-1" d="m225.93,67.21c-.48.2-.94.29-1.36.25-.43-.03-.81-.15-1.16-.35-.35-.2-.65-.46-.92-.79-.26-.32-.47-.68-.63-1.05l-.86-2.06,5.52-2.31.83,2c.16.39.28.79.35,1.21.07.42.06.82-.03,1.2-.09.38-.27.74-.55,1.07-.28.33-.67.6-1.19.82Zm-.58-1.39c.31-.13.55-.29.71-.48.16-.19.27-.39.32-.61s.06-.45.02-.69c-.04-.24-.11-.47-.2-.7l-.28-.66-3.23,1.35.26.63c.1.24.22.46.37.66.15.2.32.36.52.47.2.12.42.18.67.2s.53-.04.84-.17Z"/><path class="cls-1" d="m223.48,70.09l5.94-.73.49,3.99-1.21.15-.32-2.61-1.12.14.3,2.47-1.15.14-.3-2.47-1.23.15.34,2.76-1.22.15-.51-4.14Z"/><path class="cls-1" d="m227.96,79.68c.17-.1.32-.25.43-.44.12-.19.19-.37.21-.56.01-.09.01-.19,0-.29s-.03-.19-.06-.27c-.04-.09-.09-.16-.16-.22-.07-.06-.16-.1-.28-.11-.1-.01-.19,0-.26.03-.07.03-.14.09-.2.16-.06.07-.12.17-.17.27-.06.11-.12.23-.18.36-.09.19-.19.39-.3.6-.11.21-.24.39-.39.56-.16.16-.34.29-.55.38-.21.09-.47.12-.76.09-.34-.04-.63-.14-.86-.3s-.42-.35-.55-.58c-.14-.23-.23-.49-.27-.77-.04-.28-.05-.57-.02-.86.05-.42.18-.83.37-1.2.2-.38.45-.68.75-.91l.84,1.06c-.2.12-.37.3-.52.52-.15.22-.24.45-.27.69-.01.11-.01.21,0,.31.01.1.04.2.08.28.04.08.1.15.18.21.08.05.17.09.29.1.11.01.21,0,.3-.05.09-.05.17-.12.25-.21.07-.1.15-.22.22-.36.07-.15.15-.32.24-.5.08-.18.18-.36.28-.53.11-.17.23-.32.38-.45s.32-.22.52-.28c.2-.06.43-.08.7-.05.33.04.61.14.82.3.22.16.39.36.51.6.13.24.2.5.24.78.03.28.04.56,0,.84-.04.34-.14.67-.31,1.01s-.38.62-.66.85l-.85-1.03Z"/><path class="cls-1" d="m222.93,81.75l5.69,1.84-.45,1.38-5.69-1.84.45-1.38Z"/><path class="cls-1" d="m219.6,88.82c.12-.38.3-.77.53-1.17.25-.41.54-.75.87-1.02.34-.27.7-.46,1.09-.56.38-.11.79-.13,1.2-.07.42.06.83.21,1.23.45.41.25.74.54.99.88.25.34.41.71.5,1.1.08.39.09.79.01,1.21-.07.41-.23.82-.47,1.21-.24.4-.53.75-.86,1.02-.33.27-.67.46-1,.55l-.42-1.32c.21-.04.42-.13.63-.27.21-.14.39-.34.54-.59.13-.22.21-.44.24-.67s.01-.46-.05-.68c-.06-.22-.17-.43-.32-.62-.15-.19-.34-.36-.57-.5-.24-.14-.48-.24-.71-.29-.24-.05-.47-.05-.69,0-.22.05-.43.15-.63.29-.2.15-.37.35-.52.6-.09.14-.16.29-.21.43-.06.14-.09.29-.11.43l.94.56.58-.98,1,.6-1.27,2.12-2.72-1.63c.02-.33.09-.69.21-1.07Z"/><path class="cls-1" d="m215.05,93.71l4.4,1.31.02-.02-2.64-2.89,1.04-.94,3.99,4.46-1.23,1.1-4.39-1.31-.02.02,2.63,2.88-1.04.94-3.99-4.46,1.22-1.09Z"/><path class="cls-1" d="m212.09,95.85l2.63,5.37-3.61,1.77-.54-1.09,2.36-1.16-.5-1.02-2.23,1.1-.51-1.04,2.23-1.09-.55-1.11-2.5,1.22-.54-1.11,3.75-1.84Z"/><path class="cls-1" d="m203.56,98.89l1.75,2.07.48-.1-.48-2.32,1.38-.28,1.2,5.86-2.23.46c-.28.06-.56.08-.84.08-.28,0-.54-.05-.78-.15-.24-.09-.45-.24-.62-.44s-.29-.47-.36-.81c-.08-.4-.04-.75.12-1.07.16-.31.42-.57.77-.76l-2.05-2.19,1.65-.34Zm.89,4.05c.03.14.08.24.16.32.07.07.16.12.26.15.1.03.21.04.33.03.12,0,.23-.02.33-.04l.76-.16-.28-1.37-.67.14c-.12.02-.23.06-.35.1-.12.05-.22.1-.31.17-.09.07-.16.16-.2.26s-.05.23-.02.38Z"/><path class="cls-1" d="m217.23,128.35c-.27.57-.08,1.32.45,1.68.52.35,1.29.26,1.72-.21.79-.85.35-2.19-.08-3.09-.69-1.47-1.97-2.66-3.54-3.13-1.94-.59-4.03-.41-6.03-.41h-.84c-1.68-.45-3.17-.65-4.98-.65-6.46,0-11.5,4.21-11.5,10.6,0,4.66,2.52,8.85,7.49,10.01-4.19.39-7.49,1.94-7.49,5.5s3.56,4.97,6.86,5.36c-5.05.71-8.15,3.95-8.15,8.27,0,6.4,6.28,8.98,13.7,8.98,8.14,0,13.96-2.96,13.96-9.5,0-5.36-4.01-8.4-13.57-8.4s-11.63-1.81-11.63-4.9c0-3.43,3.82-4.66,10.34-4.66,8.33,0,11.5-5.68,11.5-10.66,0-3.55-1.29-6.84-4.85-8.98h1.76c1.78,0,3.9.05,5.18,1.5.25.28.47.63.63.97.19.41.3.76.17.82-.44.18-.87.47-1.09.91Zm-12.2,26.11c9.89,0,12.47,3.49,12.47,7.49,0,5.76-5.5,8.14-12.47,8.14s-12.47-2.12-12.47-8.01c0-3.93,2.59-6.78,8.27-7.62h4.21Zm8.79-21.32c0,5.95-3.69,9.69-9.89,9.69s-9.89-3.8-9.89-9.69,4.33-9.56,9.89-9.63c6.26-.06,9.89,3.56,9.89,9.63Z"/><path class="cls-1" d="m223.76,138.64c0-8.92,5.23-16.09,13.63-16.09s13.37,6.98,13.37,14.8v.71h-25.33v.39c0,8.92,4.14,15.64,12.6,15.64,5.88,0,9.89-2.84,11.5-8.72l.97.32c-1.68,6.27-6.07,9.43-12.53,9.43-9.3,0-14.21-7.17-14.21-16.48Zm1.68-1.55h23.65c-.32-6.85-3.88-13.5-11.69-13.5s-11.57,7.24-11.95,13.5Z"/><path class="cls-1" d="m69.73,154.47v-1.03h6.21v-42.55h-6.21v-1.04h14.68c14.81,0,21.6,9.64,21.6,22.25s-6.73,22.38-21.6,22.38h-14.68Zm7.89-1.03h6.79c12.74,0,19.92-7.89,19.92-21.34s-7.18-21.21-19.85-21.21h-6.86v42.55Z"/><path class="cls-1" d="m112.48,117.28c1.81-1.04,2.72-2.78,2.78-4.66-1.36,0-2-.78-2-1.75,0-.71.45-1.55,1.62-1.55,1.23,0,1.75.91,1.75,2.26,0,2.2-.84,5.11-4.14,6.79v-1.1Z"/><path class="cls-1" d="m107.75,154.47v-1.03h4.98l14.81-43.59h1.42l15.2,43.59h5.04v1.03h-11.84v-1.03h5.17l-4.79-13.71h-19.21l-4.66,13.71h5.24v1.03h-11.38Zm20.31-42.68l-9.18,26.9h18.56l-9.38-26.9Z"/><path class="cls-1" d="m167.49,154.47h-13.26v-1.03h5.88v-29.23h-5.88v-1.04c5.63,0,6.08-.06,6.6-.65l.58.32v8.08c.91-4.2,4.07-8.41,10.67-8.41,6.92,0,11.19,4.14,11.19,13.32v17.59h5.82v1.03h-13.19v-1.03h5.76v-17.59c0-8.47-3.94-12.03-9.96-12.03s-10.02,3.69-10.02,12.35v17.27h5.82v1.03Z"/><path class="cls-1" d="m254.72,153.43h5.76v-46.44h-5.76v-1.03c5.37,0,6.34-.06,6.86-.65l.52.26v47.86h5.88v1.03h-13.26v-1.03Z"/><rect class="cls-1" x="133.84" y="138.69" width="10.89" height="1.02"/><path class="cls-1" d="m144.73,138.7v.99c.4,0,.83,0,1.26-.04.79-.04,1.6-.16,2.34-.54.5-.25.97-.61,1.37-1.06.16-.16.29-.34.41-.52.14-.22.27-.43.4-.65.11-.16.2-.34.27-.52.16-.4.31-.81.43-1.26l-.95-.25c-.09.36-.23.81-.47,1.28-.16.32-.36.65-.57.97-.36.45-.79.84-1.33,1.11-.93.49-2.12.49-3.14.49Z"/><path class="cls-1" d="m145.98,139.65c.79-.04,1.6-.16,2.34-.54.5-.25.97-.61,1.37-1.06.16-.16.29-.34.41-.52.14-.22.27-.43.4-.65.11-.16.2-.34.27-.52.45-.93.68-1.92.74-2.86.05-.92-.47-1.55-1.35-1.6-.77-.04-1.29.49-1.33,1.26-.04.83.59,1.35,1.42,1.55-.09.45-.23.93-.47,1.42-.16.32-.36.65-.57.97-.72,1.01-1.78,1.96-3.22,2.55Z"/><path class="cls-1" d="m74.74,127.26c-8.47,0-12.46-6.01-12.46-10.86,0-1.23.72-2.03,1.88-2.03,1.01,0,1.67.72,1.67,1.74,0,1.09-.87,1.74-1.95,1.96.43,3.33,3.84,7.97,10.79,7.97,8.26,0,10.43-5.36,10.43-14.85v-52.07h-7.1v-1.16h15.8v1.16h-6.82v51.71c0,10.28-2.82,16.44-12.24,16.44Z"/><path class="cls-1" d="m135.1,106.51h-1.09v-12.6h1.23c.07,8.62,6.81,11.44,13.54,11.44,7.17,0,9.92-3.04,9.92-7.6s-3.55-7.31-11.59-8.69c-10.79-1.81-12.53-5.65-12.53-9.85,0-5.43,4.35-9.2,11.52-9.2,4.92,0,9.63,1.74,11.59,5.43l.22-5.43h1.01v11.3h-1.16c-.14-8.18-6.44-10.14-11.66-10.14-6.52,0-9.85,3.48-9.85,7.75,0,3.62,1.38,7.02,11.95,8.76,7.89,1.3,12.09,4.13,12.09,9.78,0,5.14-2.97,9.05-11.37,9.05-7.02,0-12.02-2.75-13.54-7.1l-.29,7.1Z"/><path class="cls-1" d="m167.76,106.51h-1.09v-12.6h1.23c.07,8.62,6.81,11.44,13.54,11.44,7.17,0,9.92-3.04,9.92-7.6s-3.55-7.31-11.59-8.69c-10.79-1.81-12.53-5.65-12.53-9.85,0-5.43,4.35-9.2,11.52-9.2,4.92,0,9.63,1.74,11.59,5.43l.22-5.43h1.01v11.3h-1.16c-.14-8.18-6.44-10.14-11.66-10.14-6.52,0-9.85,3.48-9.85,7.75,0,3.62,1.38,7.02,11.95,8.76,7.89,1.3,12.09,4.13,12.09,9.78,0,5.14-2.97,9.05-11.37,9.05-7.02,0-12.02-2.75-13.54-7.1l-.29,7.1Z"/><path class="cls-1" d="m97.54,88.05c0-9.99,5.87-18.03,15.28-18.03s14.99,7.82,14.99,16.58v.8h-28.39v.44c0,9.99,4.63,17.52,14.12,17.52,6.59,0,11.08-3.19,12.89-9.78l1.09.36c-1.88,7.02-6.81,10.57-14.05,10.57-10.43,0-15.93-8.04-15.93-18.47Zm1.88-1.74h26.51c-.36-7.68-4.34-15.14-13.11-15.14s-12.96,8.11-13.4,15.14Z"/><path class="cls-1" d="m98.57,86.33v.99c-.4,0-.83,0-1.26-.04-.79-.04-1.6-.16-2.34-.54-.5-.25-.97-.61-1.37-1.06-.16-.16-.29-.34-.41-.52-.14-.22-.27-.43-.4-.65-.11-.16-.2-.34-.27-.52-.16-.4-.31-.81-.43-1.26,0,0,.72-.33.72-.33.19.84.45,1.67,1.09,2.29.69.67,1.54,1.15,2.47,1.39.18.05,2.19.35,2.19.25Z"/><path class="cls-1" d="m97.47,87.27c-.16-.09-.61-.02-.81-.05-.29-.04-.58-.1-.86-.19-.59-.18-1.14-.45-1.64-.8-1.07-.75-1.76-1.82-2.2-3.04-.34-.94-.67-2.3.18-3.09.46-.43,1.25-.46,1.74-.06.49.4.63,1.17.3,1.72-.25.41-.7.66-1.15.81-.36.12.81,2.41,1.01,2.6.78.79,2.48,1.57,3.45,2.1Z"/><path class="cls-1" d="m270.3,138.86c0-9.05,5.24-16.3,13.71-16.3s13.71,7.24,13.71,16.3-5.17,16.3-13.71,16.3-13.71-7.18-13.71-16.3Zm1.62,0c0,8.41,4.33,15.26,12.09,15.26s12.09-6.79,12.09-15.26-4.33-15.26-12.09-15.26-12.09,6.79-12.09,15.26Z"/></svg>